<svg width="26" height="20" viewBox="0 0 26 20" fill="none" xmlns="http://www.w3.org/2000/svg">
<path d="M5.92231 12.4483C5.70256 12.5257 5.49426 12.6273 5.30063 12.75C4.43873 12.3934 3.63143 11.8629 2.93176 11.1584C0.0906194 8.32686 0.0906194 3.72378 2.93176 0.892226C3.22241 0.601811 3.52759 0.340437 3.85458 0.108105C4.39955 -0.276696 5.25698 0.369479 5.19885 0.97209C5.00266 3.04856 5.70023 5.20489 7.29882 6.79492C7.90895 7.40733 8.60132 7.8874 9.34072 8.23553C7.39935 8.5562 5.9187 10.2426 5.9187 12.2748C5.9187 12.333 5.91991 12.3908 5.92231 12.4483Z" fill="white"/>
<path d="M11.5823 3.53538L12.1215 5.32311C12.0683 5.3658 12.016 5.40942 11.9644 5.45397L10.3929 4.38764L8.57426 5.62171L9.20353 3.53538L7.45402 2.21268L9.65992 2.15132L10.3929 0.105902L11.1259 2.15132L13.3318 2.21268L11.5823 3.53538Z" fill="white"/>
<path d="M17.7999 2.32177L18.934 1.46952L17.5095 1.43543L17.0324 0.105908L16.5552 1.43543L15.1307 1.46952L16.2648 2.32177L15.8568 3.67175L17.0324 2.87404L18.2079 3.67175L17.7999 2.32177Z" fill="white"/>
<path d="M7.96582 19.4398H21.2721C23.5333 19.4398 25.3663 17.6067 25.3663 15.3455C25.3663 13.4252 24.0442 11.8136 22.2606 11.3714C22.2838 11.164 22.2957 10.9531 22.2957 10.7395C22.2957 7.63038 19.7752 5.10993 16.6661 5.10993C14.0873 5.10993 11.9135 6.84387 11.2469 9.20948C11.1772 9.20595 11.1071 9.20417 11.0365 9.20417C8.77532 9.20417 6.94226 11.0372 6.94226 13.2984C6.94226 13.3565 6.94347 13.4143 6.94587 13.4719C5.75134 13.8924 4.89514 15.0307 4.89514 16.3691C4.89514 18.065 6.26993 19.4398 7.96582 19.4398Z" fill="white"/>
</svg>
