<svg width="20" height="22" viewBox="0 0 20 22" fill="none" xmlns="http://www.w3.org/2000/svg">
<path d="M16.2306 3.47167L13.641 5.45738L14.5724 8.58947L11.8805 6.73683L9.18849 8.58947L10.1199 5.45738L7.53032 3.47167L10.7955 3.37955L11.8805 0.308868L12.9654 3.37955L16.2306 3.47167ZM19.813 10.5445L18.1344 11.8239L18.7383 13.8506L16.9983 12.653L15.2582 13.8506L15.8621 11.8239L14.1835 10.5445L16.292 10.4933L16.9983 8.49735L17.7045 10.4933L19.813 10.5445ZM17.4793 15.6111C18.3289 15.5292 19.2399 16.737 18.6974 17.5047C18.3698 17.9653 18.0218 18.3952 17.5919 18.8046C13.5898 22.8272 7.11066 22.8272 3.11878 18.8046C-0.883343 14.8127 -0.883343 8.32334 3.11878 4.33146C3.5282 3.92204 3.9581 3.55355 4.4187 3.22601C5.18637 2.68353 6.39417 3.5945 6.31229 4.44405C6.03592 7.37143 7.01854 10.4114 9.27037 12.653C11.512 14.9048 14.5417 15.8875 17.4793 15.6111Z" fill="white"/>
</svg>
