<svg width="22" height="21" viewBox="0 0 22 21" fill="none" xmlns="http://www.w3.org/2000/svg">
<path d="M13.9016 15.2042H16.9631C19.2243 15.2042 21.0574 13.3711 21.0574 11.1099C21.0574 9.18957 19.7353 7.57801 17.9516 7.13582C17.9748 6.92838 17.9867 6.71753 17.9867 6.50391C17.9867 3.39478 15.4663 0.874329 12.3571 0.874329C9.77832 0.874329 7.60451 2.60827 6.93795 4.97388C6.86826 4.97036 6.79811 4.96857 6.72754 4.96857C4.46636 4.96857 2.6333 6.80162 2.6333 9.06281C2.6333 9.12092 2.63451 9.17875 2.63691 9.23627C1.44238 9.65678 0.586182 10.7951 0.586182 12.1335C0.586182 13.8294 1.96097 15.2042 3.65686 15.2042H6.57222L10.9566 7.53142C11.4774 6.62009 12.8689 6.98963 12.8689 8.03925V12.1335H13.8925C14.6784 12.1335 15.1711 12.9825 14.7812 13.6649L13.9016 15.2042Z" fill="white"/>
<path d="M7.7511 15.2042L11.8453 8.03925V13.1571H13.8925L9.79822 20.322V15.2042H7.7511Z" fill="white"/>
</svg>
